<?xml version="1.0"?>
<svg width="380" height="190" xmlns="http://www.w3.org/2000/svg" xmlns:svg="http://www.w3.org/2000/svg">
 <defs>
  <filter color-interpolation-filters="sRGB" filterUnits="userSpaceOnUse" height="190" id="filter0_d_59_4" width="380" x="0" y="0">
   <feFlood flood-opacity="0" result="BackgroundImageFix"/>
   <feColorMatrix in="SourceAlpha" result="hardAlpha" type="matrix" values="0 0 0 0 0 0 0 0 0 0 0 0 0 0 0 0 0 0 127 0"/>
   <feOffset dy="20"/>
   <feGaussianBlur stdDeviation="20"/>
   <feComposite in2="hardAlpha" operator="out"/>
   <feColorMatrix type="matrix" values="0 0 0 0 0 0 0 0 0 0 0 0 0 0 0 0 0 0 0.1 0"/>
   <feBlend in2="BackgroundImageFix"/>
   <feBlend in="SourceGraphic" in2="effect1_dropShadow_59_4"/>
  </filter>
 </defs>
 <g class="layer">
  <title>Layer 1</title>
  <g filter="url(#filter0_d_59_4)" id="svg_1">
   <path d="m40,70c0,-27.61 22.39,-50 50,-50l240,0c5.52,0 10,4.48 10,10l0,50c0,27.61 -22.39,50 -50,50l-240,0c-5.52,0 -10,-4.48 -10,-10l0,-50z" fill="white" id="svg_2"/>
   <circle cx="95" cy="75" fill="#FDEDEF" id="svg_3" r="25"/>
   <path d="m101.09,85.44c-0.95,0 -2.29,-0.35 -4.29,-1.47c-2.44,-1.36 -4.33,-2.63 -6.75,-5.05c-2.34,-2.33 -3.48,-3.84 -5.07,-6.74c-1.8,-3.27 -1.49,-4.99 -1.15,-5.72c0.41,-0.88 1.01,-1.4 1.79,-1.92c0.44,-0.29 0.91,-0.54 1.4,-0.74c0.05,-0.02 0.09,-0.04 0.13,-0.06c0.24,-0.11 0.61,-0.28 1.07,-0.1c0.31,0.12 0.59,0.35 1.02,0.78c0.89,0.88 2.1,2.83 2.55,3.78c0.3,0.65 0.5,1.07 0.5,1.55c0,0.56 -0.28,0.99 -0.62,1.46c-0.07,0.08 -0.13,0.17 -0.19,0.25c-0.37,0.49 -0.46,0.63 -0.4,0.88c0.11,0.51 0.92,2.01 2.25,3.34c1.34,1.34 2.8,2.1 3.31,2.21c0.26,0.05 0.41,-0.03 0.91,-0.42c0.07,-0.05 0.15,-0.11 0.22,-0.17c0.53,-0.38 0.94,-0.66 1.48,-0.66l0,0c0.48,0 0.89,0.21 1.56,0.55c0.88,0.44 2.89,1.64 3.77,2.53c0.42,0.43 0.66,0.7 0.78,1.01c0.18,0.47 0.01,0.83 -0.1,1.08c-0.01,0.04 -0.04,0.08 -0.06,0.13c-0.2,0.49 -0.45,0.95 -0.74,1.4c-0.52,0.77 -1.05,1.37 -1.93,1.78c-0.45,0.21 -0.94,0.32 -1.44,0.32z" fill="#EE4A62" id="svg_4"/>
   <path d="m140.12,66.09c-0.86,0 -1.65,-0.2 -2.36,-0.6c-0.72,-0.4 -1.28,-0.95 -1.71,-1.66c-0.41,-0.72 -0.62,-1.53 -0.62,-2.42c0,-0.89 0.21,-1.69 0.62,-2.4c0.43,-0.71 0.99,-1.27 1.71,-1.67c0.71,-0.4 1.5,-0.6 2.36,-0.6c0.86,0 1.64,0.2 2.35,0.6c0.72,0.4 1.29,0.96 1.69,1.67c0.42,0.71 0.63,1.51 0.63,2.4c0,0.89 -0.21,1.7 -0.63,2.42c-0.41,0.71 -0.97,1.26 -1.69,1.66c-0.71,0.4 -1.49,0.6 -2.35,0.6zm0,-2.03c0.73,0 1.31,-0.24 1.74,-0.72c0.45,-0.49 0.67,-1.13 0.67,-1.93c0,-0.81 -0.22,-1.45 -0.67,-1.92c-0.43,-0.49 -1.01,-0.73 -1.74,-0.73c-0.74,0 -1.32,0.24 -1.77,0.71c-0.43,0.48 -0.65,1.13 -0.65,1.94c0,0.81 0.22,1.45 0.65,1.94c0.45,0.47 1.03,0.71 1.77,0.71zm14.46,1.94l-2.22,0l-3.72,-5.63l0,5.63l-2.22,0l0,-9.13l2.22,0l3.72,5.66l0,-5.66l2.22,0l0,9.13zm4.22,-1.72l2.92,0l0,1.72l-5.14,0l0,-9.13l2.22,0l0,7.41zm6.59,-7.41l0,9.13l-2.22,0l0,-9.13l2.22,0zm10.16,9.13l-2.22,0l-3.72,-5.63l0,5.63l-2.22,0l0,-9.13l2.22,0l3.72,5.66l0,-5.66l2.22,0l0,9.13zm4.23,-7.34l0,1.84l2.98,0l0,1.72l-2.98,0l0,2l3.37,0l0,1.78l-5.59,0l0,-9.13l5.59,0l0,1.79l-3.37,0zm11.65,7.43c-0.67,0 -1.27,-0.11 -1.8,-0.32c-0.53,-0.22 -0.95,-0.54 -1.27,-0.97c-0.31,-0.42 -0.48,-0.93 -0.5,-1.53l2.37,0c0.03,0.34 0.15,0.6 0.35,0.78c0.2,0.17 0.46,0.26 0.78,0.26c0.33,0 0.59,-0.07 0.78,-0.22c0.19,-0.16 0.29,-0.37 0.29,-0.64c0,-0.22 -0.08,-0.41 -0.24,-0.56c-0.14,-0.14 -0.33,-0.27 -0.56,-0.36c-0.21,-0.1 -0.53,-0.2 -0.93,-0.33c-0.59,-0.18 -1.07,-0.36 -1.45,-0.54c-0.37,-0.18 -0.69,-0.45 -0.96,-0.81c-0.27,-0.35 -0.4,-0.82 -0.4,-1.39c0,-0.85 0.31,-1.51 0.92,-1.99c0.62,-0.48 1.42,-0.73 2.41,-0.73c1,0 1.81,0.25 2.43,0.73c0.61,0.48 0.94,1.15 0.99,2l-2.41,0c-0.01,-0.29 -0.12,-0.52 -0.32,-0.69c-0.2,-0.17 -0.46,-0.26 -0.77,-0.26c-0.27,0 -0.48,0.08 -0.65,0.23c-0.17,0.13 -0.25,0.34 -0.25,0.61c0,0.29 0.14,0.52 0.42,0.69c0.28,0.16 0.71,0.34 1.3,0.53c0.59,0.2 1.07,0.39 1.43,0.57c0.37,0.18 0.69,0.45 0.96,0.79c0.27,0.35 0.4,0.8 0.4,1.34c0,0.52 -0.13,1 -0.4,1.42c-0.26,0.42 -0.64,0.76 -1.14,1.01c-0.51,0.26 -1.1,0.38 -1.78,0.38zm7.27,-9.22l0,5.46c0,0.55 0.13,0.97 0.4,1.26c0.27,0.3 0.66,0.45 1.18,0.45c0.52,0 0.92,-0.15 1.2,-0.45c0.27,-0.29 0.41,-0.71 0.41,-1.26l0,-5.46l2.23,0l0,5.45c0,0.82 -0.18,1.5 -0.52,2.07c-0.35,0.56 -0.82,0.99 -1.41,1.27c-0.58,0.29 -1.23,0.43 -1.95,0.43c-0.72,0 -1.36,-0.14 -1.93,-0.42c-0.57,-0.28 -1.01,-0.71 -1.34,-1.27c-0.33,-0.57 -0.5,-1.26 -0.5,-2.08l0,-5.45l2.23,0zm14.32,2.94c0,0.53 -0.12,1.02 -0.36,1.46c-0.24,0.43 -0.62,0.78 -1.12,1.05c-0.5,0.27 -1.13,0.4 -1.87,0.4l-1.38,0l0,3.28l-2.22,0l0,-9.13l3.6,0c0.73,0 1.34,0.13 1.84,0.38c0.51,0.25 0.89,0.6 1.14,1.04c0.25,0.44 0.37,0.95 0.37,1.52zm-3.52,1.15c0.43,0 0.74,-0.1 0.95,-0.3c0.21,-0.2 0.31,-0.48 0.31,-0.85c0,-0.36 -0.1,-0.64 -0.31,-0.84c-0.21,-0.2 -0.52,-0.3 -0.95,-0.3l-1.21,0l0,2.29l1.21,0zm12.03,-1.15c0,0.53 -0.13,1.02 -0.37,1.46c-0.24,0.43 -0.61,0.78 -1.12,1.05c-0.5,0.27 -1.12,0.4 -1.87,0.4l-1.38,0l0,3.28l-2.22,0l0,-9.13l3.6,0c0.73,0 1.34,0.13 1.85,0.38c0.5,0.25 0.88,0.6 1.13,1.04c0.25,0.44 0.38,0.95 0.38,1.52zm-3.53,1.15c0.43,0 0.74,-0.1 0.95,-0.3c0.21,-0.2 0.31,-0.48 0.31,-0.85c0,-0.36 -0.1,-0.64 -0.31,-0.84c-0.21,-0.2 -0.52,-0.3 -0.95,-0.3l-1.21,0l0,2.29l1.21,0zm9.39,5.13c-0.86,0 -1.65,-0.2 -2.37,-0.6c-0.71,-0.4 -1.28,-0.95 -1.7,-1.66c-0.42,-0.72 -0.62,-1.53 -0.62,-2.42c0,-0.89 0.2,-1.69 0.62,-2.4c0.42,-0.71 0.99,-1.27 1.7,-1.67c0.72,-0.4 1.51,-0.6 2.37,-0.6c0.86,0 1.64,0.2 2.35,0.6c0.72,0.4 1.28,0.96 1.69,1.67c0.42,0.71 0.63,1.51 0.63,2.4c0,0.89 -0.21,1.7 -0.63,2.42c-0.41,0.71 -0.98,1.26 -1.69,1.66c-0.71,0.4 -1.49,0.6 -2.35,0.6zm0,-2.03c0.73,0 1.31,-0.24 1.74,-0.72c0.44,-0.49 0.66,-1.13 0.66,-1.93c0,-0.81 -0.22,-1.45 -0.66,-1.92c-0.43,-0.49 -1.01,-0.73 -1.74,-0.73c-0.74,0 -1.33,0.24 -1.77,0.71c-0.43,0.48 -0.65,1.13 -0.65,1.94c0,0.81 0.22,1.45 0.65,1.94c0.44,0.47 1.03,0.71 1.77,0.71zm10.95,1.94l-1.9,-3.45l-0.53,0l0,3.45l-2.23,0l0,-9.13l3.73,0c0.72,0 1.33,0.13 1.84,0.38c0.51,0.25 0.89,0.6 1.14,1.04c0.25,0.43 0.38,0.92 0.38,1.46c0,0.6 -0.18,1.15 -0.52,1.62c-0.34,0.48 -0.84,0.82 -1.51,1.02l2.1,3.61l-2.5,0zm-2.43,-5.02l1.37,0c0.41,0 0.71,-0.1 0.91,-0.3c0.21,-0.2 0.31,-0.48 0.31,-0.84c0,-0.35 -0.1,-0.62 -0.31,-0.82c-0.2,-0.2 -0.5,-0.3 -0.91,-0.3l-1.37,0l0,2.26zm13.21,-4.11l0,1.79l-2.42,0l0,7.34l-2.22,0l0,-7.34l-2.42,0l0,-1.79l7.06,0z" fill="#89898B" id="svg_5"/>
   <text fill="#ff4444" font-family="Serif" font-size="24" id="svg_7" stroke="null" stroke-dasharray="null" stroke-linecap="null" stroke-linejoin="null" stroke-opacity="null" stroke-width="0" text-anchor="middle" x="218" xml:space="preserve" y="93">+62 811-2182-112</text>
  </g>
 </g>
</svg>